<svg width="43" height="90" viewBox="0 0 43 90" fill="none" xmlns="http://www.w3.org/2000/svg">
<path d="M0.91938 69.75C0.91938 69.1406 1.15512 68.6016 1.62662 68.1328L29.421 40.5L1.62662 12.8672C1.15512 12.3984 0.91938 11.8594 0.91938 11.25C0.91938 10.6406 1.15512 10.1016 1.62662 9.6328L5.1628 6.11718C5.63429 5.64843 6.17651 5.41405 6.78944 5.41405C7.40238 5.41405 7.9446 5.64843 8.41609 6.11718L41.3733 38.8828C41.8448 39.3516 42.0806 39.8906 42.0806 40.5C42.0806 41.1094 41.8448 41.6484 41.3733 42.1172L8.41609 74.8828C7.9446 75.3516 7.40238 75.5859 6.78944 75.5859C6.17651 75.5859 5.63429 75.3516 5.1628 74.8828L1.62662 71.3672C1.15512 70.8984 0.91938 70.3594 0.91938 69.75Z" fill="white"/>
</svg>
