<svg width="43" height="90" viewBox="0 0 43 90" fill="none" xmlns="http://www.w3.org/2000/svg">
<path d="M42.0806 69.75C42.0806 69.1406 41.8449 68.6016 41.3734 68.1328L13.579 40.5L41.3734 12.8672C41.8449 12.3984 42.0806 11.8594 42.0806 11.25C42.0806 10.6406 41.8449 10.1016 41.3734 9.6328L37.8372 6.11718C37.3657 5.64843 36.8235 5.41405 36.2106 5.41405C35.5976 5.41405 35.0554 5.64843 34.5839 6.11718L1.62667 38.8828C1.15518 39.3516 0.919434 39.8906 0.919434 40.5C0.919434 41.1094 1.15518 41.6484 1.62667 42.1172L34.5839 74.8828C35.0554 75.3516 35.5976 75.5859 36.2106 75.5859C36.8235 75.5859 37.3657 75.3516 37.8372 74.8828L41.3734 71.3672C41.8449 70.8984 42.0806 70.3594 42.0806 69.75Z" fill="white"/>
</svg>
