<svg width="40" height="40" viewBox="0 0 40 40" fill="none" xmlns="http://www.w3.org/2000/svg">
<path d="M27.9559 20.2913L20.5384 11.2603C20.4714 11.1786 20.3885 11.1131 20.2953 11.0682C20.2022 11.0232 20.101 11 19.9987 11C19.8963 11 19.7951 11.0232 19.702 11.0682C19.6089 11.1131 19.526 11.1786 19.459 11.2603L12.0437 20.2913C12.0213 20.3185 12.0068 20.3519 12.0019 20.3876C11.9969 20.4233 12.0018 20.4598 12.016 20.4926C12.0301 20.5254 12.0529 20.5533 12.0816 20.5729C12.1102 20.5924 12.1437 20.6028 12.1778 20.6029H13.988C14.0908 20.6029 14.1892 20.5557 14.2585 20.4731L19.1506 14.5162V27.8111C19.1506 27.915 19.231 28 19.3293 28H20.6703C20.7686 28 20.849 27.915 20.849 27.8111V14.5162L25.7411 20.4731C25.8082 20.5557 25.9065 20.6029 26.0116 20.6029H27.8218C27.9738 20.6029 28.0565 20.414 27.9559 20.2913Z" fill="black"/>
<rect x="0.5" y="0.5" width="39" height="39" stroke="black"/>
</svg>
