<svg width="14" height="12" viewBox="0 0 14 12" fill="none" xmlns="http://www.w3.org/2000/svg">
<path d="M8.31379 11.2823C8.18438 11.4997 7.99412 11.6809 7.76289 11.8072C7.53166 11.9334 7.26794 12 6.99929 12C6.73064 12 6.46693 11.9334 6.23569 11.8072C6.00446 11.6809 5.8142 11.4997 5.68479 11.2823L0.185792 2.05209C0.0601557 1.84127 -0.00380017 1.60386 0.000227928 1.36328C0.00425603 1.12269 0.0761291 0.887223 0.208763 0.680087C0.341397 0.472951 0.530213 0.301295 0.756601 0.182038C0.98299 0.0627813 1.23914 4.08599e-05 1.49979 -3.35512e-07L12.4988 -3.35512e-07C12.7594 4.08599e-05 13.0156 0.0627813 13.242 0.182038C13.4684 0.301295 13.6572 0.472951 13.7898 0.680087C13.9225 0.887223 13.9943 1.12269 13.9984 1.36328C14.0024 1.60386 13.9384 1.84127 13.8128 2.05209L8.31379 11.2823V11.2823Z" fill="#333333"/>
</svg>
